<?xml version="1.0" standalone="no"?>
<!DOCTYPE svg PUBLIC "-//W3C//DTD SVG 20010904//EN">
<svg version="1.0" xmlns="http://www.w3.org/2000/svg"
 width="512.000000pt" height="512.000000pt" viewBox="0 0 512.000000 512.000000"
 preserveAspectRatio="xMidYMid meet">

<g transform="translate(0.000000,512.000000) scale(0.100000,-0.100000)"
fill="#000000" stroke="none">
<path d="M1300 4953 c-190 -21 -408 -101 -565 -206 -83 -56 -108 -77 -203
-170 -172 -169 -293 -394 -348 -647 -18 -81 -19 -153 -19 -1370 0 -1217 1
-1289 19 -1370 113 -515 491 -893 1006 -1006 81 -18 153 -19 1370 -19 1217 0
1289 1 1370 19 515 113 893 491 1006 1006 18 81 19 153 19 1370 0 1428 4 1338
-67 1540 -132 375 -435 673 -803 794 -197 64 -96 60 -1485 61 -696 1 -1281 0
-1300 -2z m2543 -328 c379 -66 685 -356 774 -735 17 -70 18 -163 18 -1330 0
-1167 -1 -1260 -18 -1330 -72 -306 -293 -565 -578 -679 -176 -70 -77 -66
-1474 -66 -1184 0 -1265 1 -1335 18 -358 87 -620 342 -723 706 -22 76 -22 77
-25 1310 -2 1064 0 1246 13 1322 60 351 310 639 654 754 130 43 140 43 1402
44 1028 1 1219 -1 1292 -14z"/>
<path d="M1215 3426 c-79 -35 -115 -128 -82 -209 9 -21 130 -136 360 -342 190
-171 346 -312 346 -315 0 -3 -156 -144 -346 -315 -245 -220 -350 -320 -361
-345 -28 -67 -4 -146 60 -193 34 -25 104 -33 145 -16 51 22 872 765 889 805
18 42 18 86 0 128 -10 23 -145 151 -435 412 -232 209 -434 384 -449 391 -36
16 -90 15 -127 -1z"/>
<path d="M2495 1986 c-67 -29 -105 -106 -91 -181 9 -47 59 -102 104 -115 25
-8 257 -10 714 -8 665 3 677 3 704 24 53 39 69 71 69 134 0 63 -16 95 -69 134
-27 21 -38 21 -714 23 -556 2 -693 0 -717 -11z"/>
</g>
</svg>
